# xmcd
#
# Track frame offsets:
#	150
#	11072
#	19775
#	28532
#	40685
#	51978
#	63415
#	74571
#	88105
#	98475
#	109617
#	122657
#
# Disc length: 1812 seconds
#
# Revision: 1
# Processed by: cddbd v1.5.2PL0 Copyright (c) Steve Scherf et al.
# Submitted via: audiograbber 1.83.01
#
DISCID=9807120c
DTITLE=The Pretty Things - We Want Your Love
DYEAR=1967
DGENRE=Rock Oldies
TTITLE0=You Don't Believe Me
TTITLE1=Buzz The Jerk
TTITLE2=Get The Picture?
TTITLE3=Can't Stand The Pain
TTITLE4=Rainin' In My Heart
TTITLE5=We'll Play House
TTITLE6=You'll Never Do It Baby
TTITLE7=I Had A Dream
TTITLE8=I Want Your Love
TTITLE9=London Town
TTITLE10=Cry To Me
TTITLE11=Gonna Find Me A Substitute
EXTD=
EXTT0=
EXTT1=
EXTT2=
EXTT3=
EXTT4=
EXTT5=
EXTT6=
EXTT7=
EXTT8=
EXTT9=
EXTT10=
EXTT11=
PLAYORDER=
